<?xml version="1.0" encoding="UTF-8" standalone="no"?>
<!DOCTYPE svg PUBLIC "-//W3C//DTD SVG 1.1//EN" "http://www.w3.org/Graphics/SVG/1.1/DTD/svg11.dtd">
<svg width="100%" height="100%" viewBox="0 0 1080 1080" version="1.1" xmlns="http://www.w3.org/2000/svg" xmlns:xlink="http://www.w3.org/1999/xlink" xml:space="preserve" xmlns:serif="http://www.serif.com/" style="fill-rule:evenodd;clip-rule:evenodd;stroke-linejoin:round;stroke-miterlimit:2;">
    <g id="imaginary">
        <circle cx="540" cy="540" r="540" style="fill:rgb(44,82,130);"/>
        <clipPath id="_clip1">
            <circle cx="540" cy="540" r="540"/>
        </clipPath>
        <g clip-path="url(#_clip1)">
            <g transform="matrix(0.907407,0,0,0.907407,50,50)">
                <circle cx="540" cy="540" r="540" style="fill:rgb(44,82,130);"/>
                <clipPath id="_clip2">
                    <circle cx="540" cy="540" r="540"/>
                </clipPath>
                <g clip-path="url(#_clip2)">
                    <g transform="matrix(5.0955,0,0,5.0955,-584.697,-1059.22)">
                        <text x="181.144px" y="488.539px" style="font-family:'Georgia-Italic', 'Georgia', serif;font-style:italic;font-size:288px;fill:rgb(26,32,44);">i</text>
                    </g>
                </g>
            </g>
            <g transform="matrix(0.907407,0,0,0.907407,50,50)">
                <circle cx="540" cy="540" r="540" style="fill:rgb(66,153,225);"/>
                <clipPath id="_clip3">
                    <circle cx="540" cy="540" r="540"/>
                </clipPath>
                <g clip-path="url(#_clip3)">
                    <g transform="matrix(5.0955,0,0,5.0955,-584.697,-1059.22)">
                        <text x="181.144px" y="488.539px" style="font-family:'Georgia-Italic', 'Georgia', serif;font-style:italic;font-size:288px;fill:rgb(44,82,130);">i</text>
                    </g>
                </g>
            </g>
            <g transform="matrix(0.833333,0,0,0.833333,90,90)">
                <circle cx="540" cy="540" r="540" style="fill:white;"/>
                <clipPath id="_clip4">
                    <circle cx="540" cy="540" r="540"/>
                </clipPath>
                <g clip-path="url(#_clip4)">
                    <g transform="matrix(5.54844,0,0,5.54844,-684.67,-1201.37)">
                        <text x="181.144px" y="488.539px" style="font-family:'Georgia-Italic', 'Georgia', serif;font-style:italic;font-size:288px;">i</text>
                    </g>
                </g>
            </g>
        </g>
    </g>
    <g transform="matrix(7.8125,0,0,7.8125,551,325)">
        <g id="icons">
            <circle id="size" cx="16" cy="16" r="16" style="fill:rgb(247,147,26);fill-opacity:0;"/>
        </g>
    </g>
</svg>
